<svg xmlns="http://www.w3.org/2000/svg" xmlns:xlink="http://www.w3.org/1999/xlink" version="1.1" x="0px" y="0px"
    viewBox="0 0 64 64" xml:space="preserve">
    <defs>
        <linearGradient id="gradient" x1="0%" y1="0%" x2="100%" y2="100%">
            <stop offset="0%" style="stop-color:#fdaf42;stop-opacity:1" />
            <stop offset="50%" style="stop-color:#fc51fa;stop-opacity:1" />
            <stop offset="100%" style="stop-color:#2cd4ff;stop-opacity:1" />
        </linearGradient>
    </defs>
    <g>
        <path fill="url(#gradient)"
            d="M61.9689331,21.1883488c0.1001015-0.4748783-0.1728172-0.9660645-0.6413574-1.1385498L54.1875,8.699214   c-0.4433594-0.7060552-1.2050781-1.1367192-2.0371094-1.1533208c-0.8305931-0.0153317-1.6113548,0.384264-2.0820313,1.0722671   c0-0.000001-3.8691406,5.6494131-3.8691406,5.6494131c-0.1123047,0.1630859-0.2705078,0.1962891-0.3544922,0.2021484   c-0.0898438,0.0009766-0.2460938-0.0097656-0.3759766-0.1572266l-0.9189453-1.0429688   c-1.0573692-1.2730408-3.2495537-1.0329008-4.0078011,0.4404879c-0.0000114-0.0000582-3.1331291,5.6923237-3.1331291,5.6923237   H26.593689l-5.2948608-9.7148428c-0.7477474-1.472188-2.9447823-1.6735401-3.9541054-0.3710346   c0.0000038-0.0000591-0.7373009,0.9013081-0.7373009,0.9013081c-0.1132813,0.1367188-0.2519531,0.1425781-0.3310547,0.1445313   c-0.0751953-0.0048828-0.2158203-0.0361328-0.3085938-0.1884766l-2.7783203-4.5302739   c-0.4277344-0.6953125-1.1689453-1.1220703-1.9833984-1.1416016c-0.8603516-0.0419922-1.5771484,0.3720703-2.0351563,1.046875   L2.1738281,15.8222609C2.0605469,15.9882765,2,16.183588,2,16.3847599v10.0449219c0,0.5527344,0.4472656,1,1,1h2v1.5712891   c0,1.9296875,1.5703125,3.5000019,3.5,3.5000019c0.3974609,0,0.7841797,0.1591797,1.0634766,0.4384766   C9.8408203,33.2167931,10,33.6035118,10,34.0009727v3c0,1.9296875,1.5703125,3.5,3.5,3.5h2c0.8271484,0,1.5,0.6728516,1.5,1.5v5.5   c0.1533546,7.3096199,10.562521,8.1817322,11.9169922,1h5.1728516C34.6005859,48.5009727,35,48.9003868,35,49.411129v5.5898438   c-0.0847092,3.9205055,4.97715,6.0221214,7.6709518,3.1824875C43.5283203,57.3408165,44,56.2109337,44,55.0009727v-6.5   c0-0.5517578,0.4482422-1,1-1h2c1.6542969,0,3-1.3457031,3-3c0-0.2666016,0.1025391-0.5136719,0.3066406-0.7128906   C50.4863281,43.6035118,50.7333984,43.5009727,51,43.5009727h3c1.6542969,0,3-1.3457031,3-3V36.911129   c0-0.6933594,0.2285156-1.3847656,0.6367188-1.9355469l1.3271484-1.75C60.2437096,31.7261448,59.9932976,29.2546406,60,27.4296818   h1c0.5527344,0,1-0.4472656,1-1v-5.0224609C62,21.3327579,61.9852295,21.2602482,61.9689331,21.1883488z M42.2939453,14.6747999   c0.1025391-0.1855469,0.2675781-0.2304688,0.3564453-0.2402344c0.0927734-0.0029297,0.2578125-0.0009766,0.3984375,0.15625   l0.9199219,1.0439453c1.0020142,1.1960135,3.0341797,1.0740404,3.8808556-0.2373514   c0.0000038,0.0000467,3.8691444-5.6483908,3.8691444-5.6483908c0.2145348-0.2885008,0.5553818-0.2807961,0.7753983,0.0146093   c-0.0000076,0.0000391,6.2385178,9.9170303,6.2385178,9.9170303c-0.7219734,0.1811962-1.3444977,0.6860542-1.755127,1.2099609   c-1.3835335-2.0748825-4.1994476-2.1305008-5.8730469-1.1191406c-2.4892578-1.8447266-5.4453125-0.4541016-7.1611328,0.9384766   c-1.6478882-1.1453857-3.1130371-1.508728-4.3727417-1.0872192L42.2939453,14.6747999z M10.8232422,6.6747994   c0.1064453-0.15625,0.2666016-0.1738281,0.3349609-0.1738281c0.0800781,0.0019531,0.2285156,0.0292969,0.3261719,0.1884766   l2.7783203,4.5292974c0.801754,1.3835077,2.9007053,1.5344992,3.89258,0.2655716   c-0.0000019,0.0000534,0.7373028-0.9013138,0.7373028-0.9013138c0.2155533-0.2227049,0.4784832-0.1980314,0.6503963,0.061491   c-0.0000057,0.0000324,5.3303165,9.7798777,5.3303165,9.7798777c-1.6674805-0.7686768-3.7678223-0.59729-4.6535645-0.472229   c-4.9443359-3.1035156-8.7226563-1.2548828-10.2236328-0.2177734C7.9370728,18.4818668,5.0932007,19.4497623,4,19.9056339   v-3.2122803L10.8232422,6.6747994z M58,30.0908146c0.1148872,1.3249817-1.2574158,2.7016773-1.9639168,3.6855526   c-1.4200211,1.6320572-0.9762459,4.7443848-1.0360413,6.7246361C55,41.0527306,54.5517578,41.5009727,54,41.5009727   c-1.7174072,0.1065979-3.9152985-0.4381523-5.1074219,0.8730469C48.3164063,42.9345665,48,43.6894493,48,44.5009727   c0,0.5517578-0.4482422,1-1,1h-2c-1.6542969,0-3,1.3457031-3,3v6.5c0.0252647,1.3328209-1.1551361,2.5273018-2.5000153,2.4999809   C38.1210938,57.5009727,37,56.379879,37,55.0009727V49.411129c0-1.6044922-1.3056641-2.9101563-2.9101563-2.9101563H28   c-0.5527344,0-1,0.4472656-1,1c0.0473518,2.1556206-1.8517513,4.0465698-4.0000362,3.999958   C20.7939453,51.5009727,19,49.7070274,19,47.5009727v-5.5c0-1.9296875-1.5703125-3.5-3.5-3.5h-2   c-0.8271484,0-1.5-0.6728516-1.5-1.5v-3c0.0351048-1.8864784-1.6154671-3.534277-3.5000277-3.4999676   C7.6728516,30.5009708,7,29.8281193,7,29.0009708c0,0,0-1.5712891,0-1.5712891h15c0.5527344,0,1-0.4472656,1-1s-0.4472656-1-1-1H4   v-3.4390869c0.151001,0.0003052,0.3029785-0.0232544,0.4472656-0.0950928   c0.8701172-0.4355469,3.6298828-1.4033203,4.8457031-0.1875c0.375,0.375,1.0390625,0.375,1.4140625,0   c0.0341797-0.0341797,3.4833984-3.3779297,8.7382813,0.125c0.2197266,0.1464844,0.4931641,0.2001953,0.7490234,0.1484375   C20.2365112,21.9747257,24.1903687,21.2607975,25,23.2072086v19.2937641c0,0.5527344,0.4472656,1,1,1s1-0.4472656,1-1V21.402338h10   v21.0986347c0,0.5527344,0.4472656,1,1,1s1-0.4472656,1-1V23.1219425c0.5674858-2.1825523,2.2336349-2.0994987,4.3750229-0.3396358   c0.3984146,0.317297,0.9706802,0.2840939,1.3310318-0.0723515c0.1337891-0.1337891,3.3349609-3.2529297,5.5869141-1.0019531   c0.3486328,0.3505859,0.9072266,0.3876953,1.3027344,0.0957031c0.0136719-0.0097656,1.3378906-0.9677734,2.5654297-0.6191406   c0.7753906,0.2216797,1.4179688,0.9580078,1.9101563,2.1875c0.3213768,0.8753567,1.6693649,0.7950039,1.8925667-0.1035652   c0.1855431-0.5852375,0.8210716-2.0532856,2.0000114-1.6306267L60,21.6953068v3.734375H42c-0.5527344,0-1,0.4472656-1,1   s0.4472656,1,1,1h16V30.0908146z">
        </path>
        <path fill="url(#gradient)"
            d="M32,25.424799c-0.0212746-1.3130817-1.9782829-1.3156147-1.9999981,0.0000439C30,25.424799,30,30.4472599,30,30.4472599   c0.0212746,1.3130817,1.9782829,1.3156147,1.9999981-0.0000439C32,30.4472599,32,25.424799,32,25.424799z">
        </path>
        <path fill="url(#gradient)"
            d="M33,32.4609337c-0.5527344,0-1,0.4472656-1,1v4.0175781c0,0.5527344,0.4472656,1,1,1s1-0.4472656,1-1v-4.0175781   C34,32.9081993,33.5527344,32.4609337,33,32.4609337z">
        </path>
    </g>
</svg>